<?xml version="1.0" encoding="utf-8"?>
<!-- Generator: Adobe Illustrator 26.0.2, SVG Export Plug-In . SVG Version: 6.00 Build 0)  -->
<svg version="1.1" id="Layer_1" xmlns="http://www.w3.org/2000/svg" xmlns:xlink="http://www.w3.org/1999/xlink" x="0px" y="0px"
	 viewBox="0 0 48 48" style="enable-background:new 0 0 48 48;" xml:space="preserve">
<style type="text/css">
	.st0{fill:#BCBEC0;stroke:#808285;stroke-width:2;stroke-miterlimit:10;}
	.st1{fill:#00AEEF;}
</style>
<g>
	
		<rect x="16.11" y="23.44" transform="matrix(0.499 0.8666 -0.8666 0.499 40.8183 -10.236)" class="st0" width="26.31" height="13.49"/>
	<circle class="st1" cx="22.55" cy="19.99" r="11.29"/>
	<path d="M15.97,32.77c0.93,0.48,1.89,0.84,2.86,1.1l1.46,2.92c2.06,0.28,4.14,0.16,6.12-0.3l1.17-3.04c1.9-0.71,3.66-1.83,5.12-3.3
		l3.25,0.19c0.62-0.8,1.17-1.67,1.65-2.6c0.48-0.93,0.86-1.89,1.15-2.86l-2.05-2.53c0.34-2.05,0.23-4.13-0.3-6.09l1.79-2.72
		c-0.77-1.89-1.89-3.64-3.31-5.16L31.68,8.9c-0.78-0.64-1.63-1.21-2.56-1.68s-1.89-0.84-2.86-1.1L24.8,3.2
		c-2.06-0.28-4.14-0.16-6.12,0.3l-1.17,3.04c-1.9,0.71-3.66,1.83-5.12,3.3L9.14,9.64c-0.62,0.8-1.17,1.67-1.65,2.6
		s-0.86,1.89-1.15,2.86l2.05,2.53c-0.34,2.05-0.23,4.13,0.3,6.09l-1.79,2.72c0.77,1.89,1.89,3.64,3.31,5.16l3.22-0.51
		C14.19,31.72,15.05,32.29,15.97,32.77z M13.09,15.13c2.69-5.22,9.1-7.28,14.32-4.59s7.28,9.1,4.59,14.32
		c-2.69,5.22-9.1,7.28-14.32,4.59S10.4,20.35,13.09,15.13z"/>
</g>
</svg>
