<?xml version="1.0" encoding="utf-8"?>
<!-- Generator: Adobe Illustrator 26.0.2, SVG Export Plug-In . SVG Version: 6.00 Build 0)  -->
<svg version="1.1" id="Layer_1" xmlns="http://www.w3.org/2000/svg" xmlns:xlink="http://www.w3.org/1999/xlink" x="0px" y="0px"
	 viewBox="0 0 363.09 59.68" style="enable-background:new 0 0 363.09 59.68;" xml:space="preserve">
<style type="text/css">
	.st0{fill:#BCBEC0;stroke:#808285;stroke-width:2;stroke-miterlimit:10;}
	.st1{fill:#00AEEF;stroke:#808285;stroke-width:2;stroke-miterlimit:10;}
</style>
<path d="M25.05,48.53h-5.62v-18H8.11v18H2.77V8.24h22.29V48.53z M8.11,13.23v12.23h11.32V13.23H8.11z"/>
<path d="M58.47,16.82v31.71H36.19V16.82h5.34v26.65h11.32V16.82H58.47z"/>
<path d="M89.01,48.53H76.07V21.88h-6.47v-5.06h6.47V7.47h5.34v9.35h7.59v5.06h-7.59v21.59h7.59V48.53z"/>
<path d="M167.45,48.53h-5.77V21.88H150.5v26.65h-5.34V16.82h38.88v31.71h-5.62V21.88h-10.97V48.53z"/>
<path d="M211.84,29.83v-7.95h-16.66v-5.06h22.29v31.71h-22.15v-18.7H211.84z M211.84,34.96h-11.32v8.37h11.32V34.96z"/>
<path d="M248,48.53h-12.94V21.88h-6.47v-5.06h6.47V7.47h5.34v9.35H248v5.06h-7.59v21.59H248V48.53z"/>
<path d="M318.86,48.53V21.88h-11.32v26.65h-5.34V16.82h22.29v31.71H318.86z"/>
<path d="M351.79,48.53l-9.77-13.92h-1.05v13.92h-5.34V1h5.34v29.32l10.76-13.43h7.66l-13.36,15.26l14.06,16.38H351.79z"/>
<path d="M117.09,47.04c1.05,0,2.06-0.11,3.05-0.33l2.63,1.93c1.96-0.7,3.75-1.75,5.31-3.07l-0.35-3.24c1.37-1.5,2.41-3.3,3.05-5.28
	l2.98-1.31c0.18-1,0.28-2.02,0.28-3.07s-0.1-2.07-0.28-3.07l-2.98-1.31c-0.63-1.98-1.68-3.77-3.05-5.28l0.35-3.24
	c-1.55-1.32-3.35-2.37-5.31-3.07l-2.63,1.93c-0.98-0.21-2-0.33-3.05-0.33s-2.06,0.11-3.05,0.33l-2.63-1.93
	c-1.96,0.7-3.75,1.75-5.31,3.07l0.35,3.24c-1.37,1.5-2.41,3.3-3.05,5.28l-2.98,1.31c-0.18,1-0.28,2.02-0.28,3.07s0.1,2.07,0.28,3.07
	l2.98,1.31c0.63,1.98,1.68,3.77,3.05,5.28l-0.35,3.24c1.55,1.32,3.35,2.37,5.31,3.07l2.63-1.93
	C115.02,46.93,116.04,47.04,117.09,47.04z M106.45,32.68c0-5.87,4.76-10.63,10.63-10.63s10.63,4.76,10.63,10.63
	s-4.76,10.63-10.63,10.63S106.45,38.55,106.45,32.68z"/>
<g>
	
		<rect x="266.56" y="37.15" transform="matrix(0.353 0.9356 -0.9356 0.353 222.0548 -233.3115)" class="st0" width="26.31" height="13.49"/>
	<circle class="st1" cx="275.1" cy="31.98" r="15.96"/>
</g>
</svg>
